<?xml version="1.0" encoding="iso-8859-1"?>
<!-- Generator: Adobe Illustrator 19.0.0, SVG Export Plug-In . SVG Version: 6.00 Build 0)  -->
<svg xmlns="http://www.w3.org/2000/svg" xmlns:xlink="http://www.w3.org/1999/xlink" version="1.1" id="Capa_1" x="0px" y="0px" viewBox="0 0 479.2 479.2" style="enable-background:new 0 0 479.2 479.2;" xml:space="preserve" width="512px" height="512px">
<g>
	<g>
		<path d="M161.6,335.6c-0.8-4.8-2.4-8-4.8-10.4c-2.4-2.4-4.8-4.8-7.2-6.4c-3.2-1.6-6.4-3.2-9.6-3.2c2.4-0.8,4.8-2.4,7.2-4    c2.4-1.6,4-4,4.8-5.6c1.6-2.4,2.4-4.8,3.2-7.2c0.8-2.4,0.8-5.6,0.8-8c0-4.8-0.8-8.8-2.4-12.8c-1.6-4-4-7.2-7.2-9.6    c-2.4-2.4-6.4-4-10.4-5.6c0-0.8,0-0.8,0-1.6v-18.4c0-4.8-3.2-8-8-8c-4.8,0-8,3.2-8,8v16.8c-1.6,0-2.4,0-4,0h-7.2v-16.8    c0-4.8-3.2-8-8-8c-4.8,0-8,3.2-8,8v16.8H88c-1.6,0-3.2,0.8-4,1.6c-1.6,0.8-1.6,2.4-1.6,4.8v108.8c0,2.4,0.8,4,1.6,4.8    c1.6,0.8,2.4,1.6,4,1.6h4.8v18.4c0,4.8,3.2,8,8,8c4.8,0,8-3.2,8-8v-18.4H120v18.4c0,4.8,3.2,8,8,8c4.8,0,8-3.2,8-8v-18.4    c0-0.8,0-0.8,0-1.6c2.4-0.8,4.8-1.6,7.2-2.4c3.2-1.6,5.6-3.2,8-4.8c2.4-1.6,4.8-4,6.4-6.4c1.6-2.4,3.2-5.6,4-8.8    c0.8-3.2,1.6-6.4,1.6-10.4S162.4,338.8,161.6,335.6z M100,271.6h16.8c4.8,0,8,0.8,11.2,1.6s4.8,2.4,7.2,4c1.6,1.6,3.2,4,4,6.4    c0.8,2.4,1.6,4.8,1.6,8c0,2.4,0,5.6-0.8,8c-0.8,2.4-2.4,4.8-4,6.4c-1.6,1.6-4,3.2-6.4,4.8c-2.4,1.6-7.2,0.8-11.2,0.8H100V271.6z     M145.6,355.6c-0.8,2.4-3.2,4.8-4.8,6.4c-2.4,1.6-4.8,3.2-7.2,4c-2.4,0.8-6.4,1.6-9.6,1.6h-23.2v-43.2H120c4.8,0,9.6,0.8,12.8,1.6    c3.2,0.8,6.4,2.4,8,4c2.4,1.6,4,4,4.8,7.2c0.8,2.4,1.6,5.6,1.6,9.6C147.2,350,146.4,353.2,145.6,355.6z" fill="#34bbff"/>
	</g>
</g>
<g>
	<g>
		<path d="M276.8,37.2c-1.6,0-3.2,0-5.6,0c-97.6,2.4-180,75.2-194.4,171.2C32,226,0,269.2,0,320.4c0,66.4,53.6,120,120,120    c24,0,46.4-7.2,65.6-20c28,14.4,59.2,21.6,91.2,21.6c112,0,202.4-91.2,202.4-202.4S388,37.2,276.8,37.2z M227.2,59.6    c-15.2,15.2-28,37.6-37.6,64c-16-4-31.2-9.6-44.8-16C167.2,85.2,196,68.4,227.2,59.6z M133.6,120.4c15.2,8,32,14.4,51.2,19.2    c-6.4,21.6-10.4,46.4-12.8,72.8c-16-7.2-32.8-12-52-12c-8.8,0-17.6,0.8-26.4,3.2C100,171.6,113.6,143.6,133.6,120.4z M120,424.4    c-57.6,0-104-47.2-104-104c0-57.6,46.4-104,104-104c57.6,0,104,46.4,104,104C224,378,177.6,424.4,120,424.4z M199.2,410    c4-4,8-7.2,11.2-11.2c5.6,8,11.2,15.2,16.8,20.8C217.6,417.2,208,414,199.2,410z M268,426c-17.6-3.2-33.6-17.6-48-40.8    c8-12,13.6-24.8,16.8-38.4c10.4-0.8,20.8-1.6,31.2-1.6V426z M268.8,247.6v80.8c-9.6,0-19.2,0.8-28.8,1.6c0-3.2,0.8-6.4,0.8-10.4    c0-27.2-9.6-52.8-24.8-72.8h52.8V247.6z M268.8,231.6h-68c-4-4-8.8-7.2-13.6-10.4c1.6-28,5.6-55.2,12.8-77.6    c21.6,4,44.8,6.4,68.8,7.2V231.6z M268.8,134.8c-22.4-0.8-43.2-3.2-64-7.2c15.2-40.8,37.6-68.8,64-73.6V134.8z M420,119.6    c25.6,30.4,41.6,69.6,43.2,111.2h-80.8v0.8c-0.8-33.6-5.6-64.8-13.6-92.8C387.2,134,404.8,127.6,420,119.6z M408.8,107.6    c-13.6,6.4-28,12-44.8,16c-9.6-27.2-22.4-48.8-38.4-64C357.6,68.4,385.6,85.2,408.8,107.6z M284.8,54c25.6,4.8,48,32.8,63.2,73.6    c-20,4-41.6,6.4-63.2,7.2V54z M284.8,150.8c24-0.8,46.4-3.2,68-7.2c8,26.4,12.8,56.8,13.6,88.8h-81.6V150.8z M284.8,247.6h81.6    c-0.8,32-5.6,62.4-13.6,88.8c-21.6-4.8-44.8-7.2-68-8V247.6z M284.8,425.2v-80.8c21.6,0.8,43.2,3.2,63.2,7.2    C332.8,392.4,310.4,420.4,284.8,425.2z M325.6,419.6c15.2-15.2,28-37.6,38.4-64c16,4,31.2,9.6,44.8,16    C385.6,394,357.6,410.8,325.6,419.6z M420,358.8c-15.2-8-32-14.4-51.2-19.2c8-27.2,12.8-58.4,13.6-92h80.8    C461.6,290,445.6,328.4,420,358.8z" fill="#34bbff"/>
	</g>
</g>
<g>
</g>
<g>
</g>
<g>
</g>
<g>
</g>
<g>
</g>
<g>
</g>
<g>
</g>
<g>
</g>
<g>
</g>
<g>
</g>
<g>
</g>
<g>
</g>
<g>
</g>
<g>
</g>
<g>
</g>
</svg>
