<?xml version="1.0" encoding="iso-8859-1"?>
<!-- Generator: Adobe Illustrator 19.0.0, SVG Export Plug-In . SVG Version: 6.00 Build 0)  -->
<svg fill="#6E7FF3" version="1.1" id="Capa_1" xmlns="http://www.w3.org/2000/svg" xmlns:xlink="http://www.w3.org/1999/xlink" x="0px" y="0px"
	 viewBox="0 0 496 496" style="enable-background:new 0 0 496 496;" xml:space="preserve">
<g>
	<g>
		<g>
			<path d="M416,96c-6.16,0-12.184,0.904-18.088,2.272C387.56,41.952,337.752,0,280,0c-45.52,0-86.616,26.2-106.816,65.352
				C161.752,59.32,149.096,56,136,56c-41.584,0-75.824,31.896-79.624,72.496C24.672,132.28,0,159.296,0,192
				c0,35.288,28.712,64,64,64h48v-16H64c-26.472,0-48-21.528-48-48c0-23.92,17.6-43.744,40.52-47.36
				c0.664,6.16,1.976,12.216,4.048,18.064l15.088-5.344C73.224,150.512,72,143.328,72,136c0-35.288,28.712-64,64-64
				c10.928,0,21.464,2.896,30.912,8.136c-1.632,4.608-3.088,9.296-4.144,14.16l15.632,3.408C188.728,50.36,231.464,16,280,16
				c50.808,0,94.56,37.432,102.608,87.344c-3.816,1.76-7.528,3.768-11.064,6.136l8.896,13.296C390.976,115.728,403.272,112,416,112
				c35.288,0,64,28.712,64,64c0,35.288-28.712,64-64,64h-32v16h32c44.112,0,80-35.888,80-80S460.112,96,416,96z"/>
			<path d="M256,449.472V368h-16v81.472c-9.288,3.312-16,12.112-16,22.528c0,13.232,10.768,24,24,24s24-10.768,24-24
				C272,461.584,265.288,452.784,256,449.472z M248,480c-4.408,0-8-3.584-8-8c0-4.416,3.592-8,8-8s8,3.584,8,8
				C256,476.416,252.408,480,248,480z"/>
			<path d="M336,449.472v-68.136L310.4,347.2l-12.8,9.6l22.4,29.864v62.808c-9.288,3.312-16,12.112-16,22.528
				c0,13.232,10.768,24,24,24s24-10.768,24-24C352,461.584,345.288,452.784,336,449.472z M328,480c-4.408,0-8-3.584-8-8
				c0-4.416,3.592-8,8-8c4.408,0,8,3.584,8,8C336,476.416,332.408,480,328,480z"/>
			<path d="M416,449.472V356.32l-58.792-50.392l-10.416,12.144L400,363.68v85.792c-9.288,3.312-16,12.112-16,22.528
				c0,13.232,10.768,24,24,24s24-10.768,24-24C432,461.584,425.288,452.784,416,449.472z M408,480c-4.408,0-8-3.584-8-8
				c0-4.416,3.592-8,8-8c4.408,0,8,3.584,8,8C416,476.416,412.408,480,408,480z"/>
			<path d="M96,449.472V363.68l53.208-45.608l-10.416-12.144L80,356.32v93.152c-9.288,3.312-16,12.112-16,22.528
				c0,13.232,10.768,24,24,24s24-10.768,24-24C112,461.584,105.288,452.784,96,449.472z M88,480c-4.408,0-8-3.584-8-8
				c0-4.416,3.592-8,8-8s8,3.584,8,8C96,476.416,92.408,480,88,480z"/>
			<path d="M198.4,356.8l-12.8-9.6L160,381.336v68.136c-9.288,3.312-16,12.112-16,22.528c0,13.232,10.768,24,24,24s24-10.768,24-24
				c0-10.416-6.712-19.216-16-22.528v-62.808L198.4,356.8z M168,480c-4.408,0-8-3.584-8-8c0-4.416,3.592-8,8-8s8,3.584,8,8
				C176,476.416,172.408,480,168,480z"/>
			<path d="M248,352c66.168,0,120-53.832,120-120s-53.832-120-120-120s-120,53.832-120,120S181.832,352,248,352z M248,128
				c57.344,0,104,46.656,104,104s-46.656,104-104,104s-104-46.656-104-104S190.656,128,248,128z"/>
			<path d="M224,176v16h-16v80h16v16h16v-16h16v16h16v-17.472c9.288-3.312,16-12.112,16-22.528c0-6.144-2.32-11.752-6.128-16
				c3.808-4.248,6.128-9.856,6.128-16c0-10.416-6.712-19.216-16-22.528V176h-16v16h-16v-16H224z M264,256h-40v-16h40
				c4.408,0,8,3.584,8,8S268.408,256,264,256z M264,208c4.408,0,8,3.584,8,8s-3.592,8-8,8h-40v-16H264z"/>
			<path d="M192.256,277.544C181.776,264.744,176,248.56,176,232c0-39.704,32.304-72,72-72c16.56,0,32.744,5.776,45.552,16.256
				l10.136-12.376C288.024,151.064,268.248,144,248,144c-48.52,0-88,39.48-88,88c0,20.248,7.056,40.024,19.872,55.688
				L192.256,277.544z"/>
			<path d="M248,304c-16.56,0-32.744-5.776-45.552-16.256l-10.136,12.376C207.976,312.936,227.752,320,248,320
				c48.52,0,88-39.48,88-88c0-20.248-7.056-40.024-19.872-55.688l-12.384,10.144C314.224,199.256,320,215.44,320,232
				C320,271.704,287.696,304,248,304z"/>
		</g>
	</g>
</g>
<g>
</g>
<g>
</g>
<g>
</g>
<g>
</g>
<g>
</g>
<g>
</g>
<g>
</g>
<g>
</g>
<g>
</g>
<g>
</g>
<g>
</g>
<g>
</g>
<g>
</g>
<g>
</g>
<g>
</g>
</svg>
