<?xml version="1.0" encoding="iso-8859-1"?>
<!-- Generator: Adobe Illustrator 19.0.0, SVG Export Plug-In . SVG Version: 6.00 Build 0)  -->
<svg xmlns="http://www.w3.org/2000/svg" xmlns:xlink="http://www.w3.org/1999/xlink" version="1.1" id="Capa_1" x="0px" y="0px" viewBox="0 0 480.231 480.231" style="enable-background:new 0 0 480.231 480.231;" xml:space="preserve" width="512px" height="512px">
<g>
	<g>
		<path d="M240.125,112.125c-57.438,0-104,46.562-104,104s46.562,104,104,104s104-46.562,104-104    C344.059,158.715,297.535,112.191,240.125,112.125z M240.125,304.125c-48.601,0-88-39.399-88-88s39.399-88,88-88s88,39.399,88,88    C328.068,264.702,288.702,304.068,240.125,304.125z" fill="#34bbff"/>
	</g>
</g>
<g>
	<g>
		<path d="M288.125,184.125c0-13.255-10.745-24-24-24h-8v-16h-16v16h-7.936l0.128-15.936l-16-0.128l-0.128,16.064h-24.064v16h16v80    h-16v16h24.064l0.128,16.064l16-0.128l-0.128-15.936h7.936v16h16v-16h8c13.255,0,24-10.745,24-24v-16    c-0.021-5.923-2.245-11.627-6.24-16c3.995-4.373,6.219-10.077,6.24-16V184.125z M272.125,248.125c0,4.418-3.582,8-8,8h-40v-32h40    c4.418,0,8,3.582,8,8V248.125z M272.125,200.125c0,4.418-3.582,8-8,8h-40v-32h40c4.418,0,8,3.582,8,8V200.125z" fill="#34bbff"/>
	</g>
</g>
<g>
	<g>
		<path d="M240.125,80.125c-75.111,0-136,60.889-136,136s60.889,136,136,136s136-60.889,136-136    C376.041,141.049,315.201,80.209,240.125,80.125z M240.125,336.125c-66.274,0-120-53.726-120-120s53.726-120,120-120    s120,53.726,120,120C360.05,282.368,306.368,336.05,240.125,336.125z" fill="#34bbff"/>
	</g>
</g>
<g>
	<g>
		<path d="M262.752,448.224c-2.416-6.835-7.793-12.211-14.627-14.627v-57.472c0-4.418-3.582-8-8-8s-8,3.582-8,8v57.472    c-12.497,4.418-19.046,18.131-14.627,30.627c4.418,12.497,18.131,19.046,30.627,14.627S267.171,460.721,262.752,448.224z     M240.125,464.125c-4.418,0-8-3.582-8-8s3.582-8,8-8s8,3.582,8,8S244.543,464.125,240.125,464.125z" fill="#34bbff"/>
	</g>
</g>
<g>
	<g>
		<path d="M352.125,432.125c-3.569,0.013-7.089,0.833-10.296,2.4l-0.048-0.072l-37.656-37.64v-28.688c0-4.418-3.582-8-8-8    s-8,3.582-8,8v32c0,2.122,0.844,4.156,2.344,5.656l40,40l0.072,0.048c-1.571,3.206-2.397,6.726-2.416,10.296    c0,13.255,10.745,24,24,24s24-10.745,24-24S365.38,432.125,352.125,432.125z M352.125,464.125c-4.418,0-8-3.582-8-8s3.582-8,8-8    s8,3.582,8,8S356.543,464.125,352.125,464.125z" fill="#34bbff"/>
	</g>
</g>
<g>
	<g>
		<path d="M456.125,432.125c-3.569,0.013-7.089,0.833-10.296,2.4l-0.048-0.072l-77.656-77.64v-36.688c0-4.418-3.582-8-8-8    s-8,3.582-8,8v40c0,2.122,0.844,4.156,2.344,5.656l80,80l0.072,0.048c-1.571,3.206-2.397,6.726-2.416,10.296    c0,13.255,10.745,24,24,24s24-10.745,24-24S469.38,432.125,456.125,432.125z M456.125,464.125c-4.418,0-8-3.582-8-8s3.582-8,8-8    s8,3.582,8,8S460.543,464.125,456.125,464.125z" fill="#34bbff"/>
	</g>
</g>
<g>
	<g>
		<path d="M184.125,360.125c-4.418,0-8,3.582-8,8v28.688l-37.656,37.656l-0.048,0.072c-3.206-1.572-6.726-2.398-10.296-2.416    c-13.255,0-24,10.745-24,24s10.745,24,24,24s24-10.745,24-24c-0.013-3.569-0.833-7.089-2.4-10.296l0.072-0.048l40-40    c1.495-1.503,2.332-3.537,2.328-5.656v-32C192.125,363.707,188.543,360.125,184.125,360.125z M128.125,464.125    c-4.418,0-8-3.582-8-8s3.582-8,8-8c4.418,0,8,3.582,8,8S132.543,464.125,128.125,464.125z" fill="#34bbff"/>
	</g>
</g>
<g>
	<g>
		<path d="M120.125,312.125c-4.418,0-8,3.582-8,8v36.688l-77.656,77.656l-0.048,0.072c-3.206-1.572-6.726-2.398-10.296-2.416    c-13.255,0-24,10.745-24,24s10.745,24,24,24s24-10.745,24-24c-0.013-3.569-0.834-7.089-2.4-10.296l0.056-0.048l80-80    c1.5-1.5,2.344-3.534,2.344-5.656v-40C128.125,315.707,124.543,312.125,120.125,312.125z M24.125,464.125c-4.418,0-8-3.582-8-8    s3.582-8,8-8s8,3.582,8,8S28.543,464.125,24.125,464.125z" fill="#34bbff"/>
	</g>
</g>
<g>
	<g>
		<path d="M429.549,171.381c10.643-38.314-11.789-78.001-50.103-88.643c-12.282-3.412-25.249-3.501-37.577-0.26    c-11.899-56.192-67.097-92.098-123.288-80.2c-40.241,8.521-71.679,39.959-80.2,80.2C99.83,72.461,60.459,95.593,50.443,134.144    c-3.175,12.221-3.086,25.061,0.258,37.237c-37.966,11.823-59.16,52.185-47.337,90.151c9.373,30.099,37.236,50.6,68.761,50.593h24    c4.418,0,8-3.582,8-8s-3.582-8-8-8h-24c-30.928-0.035-55.972-25.135-55.937-56.063c0.03-27.176,19.568-50.408,46.337-55.097    c4.354-0.75,7.276-4.888,6.526-9.242c-0.106-0.612-0.282-1.211-0.526-1.782c-2.935-6.897-4.432-14.32-4.4-21.816    c0.035-30.913,25.087-55.965,56-56c7.395-0.017,14.716,1.458,21.528,4.336c4.071,1.716,8.763-0.194,10.479-4.265    c0.297-0.704,0.491-1.447,0.577-2.207c5.59-48.279,49.259-82.885,97.537-77.295c40.583,4.699,72.596,36.711,77.295,77.295    c0.497,4.39,4.459,7.546,8.849,7.049c0.759-0.086,1.503-0.28,2.207-0.577c6.811-2.878,14.133-4.353,21.528-4.336    c30.913,0.035,55.965,25.087,56,56c0.032,7.496-1.465,14.919-4.4,21.816c-1.734,4.064,0.154,8.764,4.218,10.498    c0.572,0.244,1.17,0.42,1.782,0.526c30.464,5.337,50.834,34.359,45.497,64.823c-4.689,26.769-27.921,46.307-55.097,46.337h-24    c-4.418,0-8,3.582-8,8s3.582,8,8,8h24c39.765,0.009,72.008-32.219,72.017-71.983C480.149,208.617,459.648,180.754,429.549,171.381    z" fill="#34bbff"/>
	</g>
</g>
<g>
</g>
<g>
</g>
<g>
</g>
<g>
</g>
<g>
</g>
<g>
</g>
<g>
</g>
<g>
</g>
<g>
</g>
<g>
</g>
<g>
</g>
<g>
</g>
<g>
</g>
<g>
</g>
<g>
</g>
</svg>
